<?xml version="1.0" encoding="UTF-8" standalone="no"?>
<!-- Created with Inkscape (http://www.inkscape.org/) -->

<svg
   xmlns:dc="http://purl.org/dc/elements/1.1/"
   xmlns:cc="http://creativecommons.org/ns#"
   xmlns:rdf="http://www.w3.org/1999/02/22-rdf-syntax-ns#"
   xmlns:svg="http://www.w3.org/2000/svg"
   xmlns="http://www.w3.org/2000/svg"
   xmlns:sodipodi="http://sodipodi.sourceforge.net/DTD/sodipodi-0.dtd"
   xmlns:inkscape="http://www.inkscape.org/namespaces/inkscape"
   width="1920"
   height="1920"
   viewBox="0 0 1920 1920"
   id="svg4212"
   version="1.1"
   inkscape:version="0.91 r13725"
   sodipodi:docname="iconPitchHigh.svg"
   inkscape:export-filename="/Users/Robert/Development/iOS/iOSsmithy/iOS005 - Audio Recording/Assets/iconPitchHigh@3x.png"
   inkscape:export-xdpi="399"
   inkscape:export-ydpi="399">
  <defs
     id="defs4214">
    <inkscape:path-effect
       fuse_tolerance="0"
       vertical_pattern="false"
       prop_units="false"
       tang_offset="0"
       normal_offset="0"
       spacing="0"
       scale_y_rel="false"
       prop_scale="1"
       copytype="single_stretched"
       pattern="M 0,5 C 0,2.24 2.24,0 5,0 7.76,0 10,2.24 10,5 10,7.76 7.76,10 5,10 2.24,10 0,7.76 0,5 Z"
       is_visible="true"
       id="path-effect5765"
       effect="skeletal" />
    <inkscape:path-effect
       effect="skeletal"
       id="path-effect5201"
       is_visible="true"
       pattern="M 0,5 C 0,2.24 2.24,0 5,0 7.76,0 10,2.24 10,5 10,7.76 7.76,10 5,10 2.24,10 0,7.76 0,5 Z"
       copytype="single_stretched"
       prop_scale="1"
       scale_y_rel="false"
       spacing="0"
       normal_offset="0"
       tang_offset="0"
       prop_units="false"
       vertical_pattern="false"
       fuse_tolerance="0" />
    <inkscape:path-effect
       effect="skeletal"
       id="path-effect5197"
       is_visible="true"
       pattern="M 0,5 C 0,2.24 2.24,0 5,0 7.76,0 10,2.24 10,5 10,7.76 7.76,10 5,10 2.24,10 0,7.76 0,5 Z"
       copytype="single_stretched"
       prop_scale="1"
       scale_y_rel="false"
       spacing="0"
       normal_offset="0"
       tang_offset="0"
       prop_units="false"
       vertical_pattern="false"
       fuse_tolerance="0" />
  </defs>
  <sodipodi:namedview
     id="base"
     pagecolor="#ffffff"
     bordercolor="#666666"
     borderopacity="1.0"
     inkscape:pageopacity="0.0"
     inkscape:pageshadow="2"
     inkscape:zoom="0.38328389"
     inkscape:cx="811.19706"
     inkscape:cy="892.43627"
     inkscape:document-units="px"
     inkscape:current-layer="layer7"
     showgrid="true"
     units="px"
     inkscape:showpageshadow="false"
     inkscape:window-width="1779"
     inkscape:window-height="1156"
     inkscape:window-x="143"
     inkscape:window-y="0"
     inkscape:window-maximized="0">
    <inkscape:grid
       type="xygrid"
       id="grid4760"
       units="px"
       spacingx="40"
       spacingy="40"
       empspacing="16"
       dotted="false" />
  </sodipodi:namedview>
  <metadata
     id="metadata4217">
    <rdf:RDF>
      <cc:Work
         rdf:about="">
        <dc:format>image/svg+xml</dc:format>
        <dc:type
           rdf:resource="http://purl.org/dc/dcmitype/StillImage" />
        <dc:title />
      </cc:Work>
    </rdf:RDF>
  </metadata>
  <g
     inkscape:groupmode="layer"
     id="layer7"
     inkscape:label="Icon">
    <path
       inkscape:connector-curvature="0"
       inkscape:original-d="m -1458.6046,544.06729 c 0,0 -89.2782,119.99997 0,0 z"
       inkscape:path-effect="#path-effect5765"
       id="path5756"
       d="m -1458.6046,544.06729 c 1.4839,1.10398 -5.2019,12.79766 -16.3653,29.25151 -3.8907,5.73461 -8.3253,12.04743 -13.1476,18.69168 -1.4497,1.99758 -2.9346,4.02511 -4.4502,6.07589 -1.8967,-0.22603 -3.796,-0.45463 -5.7161,-0.68575 0,-2e-5 0,-2e-5 0,-3e-5 -0.6697,-1.91553 -1.3308,-3.80635 -1.9873,-5.69468 2.2896,-3.05334 4.5482,-6.02443 6.7583,-8.89303 18.1305,-23.53254 32.9954,-40.16865 34.9082,-38.74559 1.9128,1.42306 -9.7492,20.44211 -27.0781,44.571 -2.1124,2.9413 -4.309,5.95853 -6.5755,9.02907 -1.9973,-0.0861 -3.9984,-0.17581 -6.0256,-0.26676 0,0 0,0 0,0 -0.7732,-1.77268 -1.538,-3.52608 -2.2997,-5.27787 1.5287,-2.04106 3.0439,-4.04596 4.5406,-6.00869 4.978,-6.52835 9.7499,-12.59022 14.1244,-17.96494 12.5512,-15.42129 21.83,-25.18578 23.3139,-24.08181 z"
       style="fill:#000000;fill-rule:evenodd;stroke:none;stroke-width:1px;stroke-linecap:butt;stroke-linejoin:miter;stroke-opacity:1" />
    <g
       id="g5802"
       transform="translate(1899.2819,-1985.7518)">
      <path
         inkscape:connector-curvature="0"
         inkscape:original-d="m -1499.2575,2728.8101 c 0,0 -66.6483,72.3139 0,0 z"
         inkscape:path-effect="#path-effect5197"
         id="path5195"
         d="m -1499.2632,2728.8163 c 0.048,0.044 0.09,0.094 0.1269,0.1499 0.032,0.059 0.057,0.1246 0.075,0.1978 0,0 0,0 0,0 0.035,0.1454 0.043,0.3192 0.023,0.5205 l 0,0 0,0 c -0.039,0.3961 -0.1829,0.8982 -0.4256,1.4971 l 0,0 c -0.4673,1.1537 -1.3006,2.6668 -2.4522,4.4744 l 0,0 c -2.0605,3.2342 -5.1404,7.411 -8.9681,12.1586 l 0,0 c -2.863,3.5512 -6.1444,7.4217 -9.7305,11.4559 l 0,0 c -1.0784,1.2131 -2.1843,2.4411 -3.3147,3.6796 l 0,0 c -0.311,0.3407 -0.6238,0.6822 -0.9384,1.0244 l 0,0 0,0 c -1.3073,-1.0386 -2.6151,-2.0776 -3.9251,-3.1185 0,0 0,0 0,0 -0.076,-0.053 -0.5117,-0.3595 -0.5874,-0.4127 0.019,0.014 -0.1694,-0.119 -0.1502,-0.1056 9e-4,9e-4 -0.044,-0.048 -0.044,-0.047 0.01,0.01 -0.1804,-0.1946 -0.1712,-0.1846 0.039,0.047 -0.5215,-0.6269 -0.4822,-0.5796 0,0 0,0 0,0 -0.6554,-0.7877 -1.31,-1.5745 -1.9638,-2.3603 l 0,0 c 0.384,-0.4154 0.7671,-0.8281 1.1492,-1.238 l 0,0 c 1.7115,-1.8357 3.4032,-3.6141 5.0616,-5.3236 l 0,0 c 13.6019,-14.0208 24.9698,-23.41 26.7228,-21.7944 1.753,1.6156 -6.6796,13.7102 -19.5466,28.4083 l 0,0 c -1.5689,1.7921 -3.2037,3.6229 -4.894,5.4782 l 0,0 c -0.3773,0.4142 -0.7575,0.8297 -1.1403,1.2462 l 0,0 c -0.8364,-0.5877 -1.6739,-1.1761 -2.5123,-1.7652 0,0 0,0 0,0 -0.034,-0.024 -0.5832,-0.4097 -0.6169,-0.4334 -0.01,-0.01 -0.19,-0.1493 -0.198,-0.1556 -9e-4,-7e-4 -0.05,-0.039 -0.05,-0.04 -0.01,-0.01 -0.1091,-0.1309 -0.1176,-0.1411 0.2603,0.3128 -0.7194,-0.8646 -0.4591,-0.5518 0,0 0,0 0,0 -1.144,-1.221 -2.2861,-2.4398 -3.4277,-3.6582 l 0,0 0,0 c 0.3155,-0.3414 0.6304,-0.681 0.9447,-1.0187 l 0,0 c 1.1423,-1.2274 2.2762,-2.4297 3.3975,-3.6032 l 0,0 c 3.7289,-3.9026 7.3194,-7.4882 10.6257,-10.6308 l 0,0 c 4.4203,-4.2015 8.3325,-7.6112 11.3882,-9.9281 l 0,0 c 1.7078,-1.295 3.1481,-2.2486 4.2599,-2.8084 l 0,0 c 0.5772,-0.2906 1.0659,-0.475 1.4576,-0.5459 l 0,0 0,0 c 0.1989,-0.036 0.3728,-0.043 0.5206,-0.019 0,0 0,0 0,0 0.074,0.012 0.1422,0.031 0.2032,0.059 0.059,0.032 0.1118,0.07 0.1598,0.1143 z"
         style="fill:#000000;fill-rule:evenodd;stroke:none;stroke-width:1px;stroke-linecap:butt;stroke-linejoin:miter;stroke-opacity:1" />
      <path
         inkscape:connector-curvature="0"
         id="path5203"
         d="m -1619.1822,2945.7518 c 0,0 113.244,-923.3458 226.488,0 113.2439,923.3459 226.488,0 226.488,0 l 0,0 0,0"
         style="fill:none;fill-rule:evenodd;stroke:#000000;stroke-width:80;stroke-linecap:round;stroke-linejoin:miter;stroke-miterlimit:4;stroke-dasharray:none;stroke-opacity:1" />
      <path
         style="fill:none;fill-rule:evenodd;stroke:#000000;stroke-width:80;stroke-linecap:round;stroke-linejoin:miter;stroke-miterlimit:4;stroke-dasharray:none;stroke-opacity:1"
         d="m -1166.0026,2945.7518 c 0,0 113.244,-923.3458 226.48804,0 113.24396,923.3459 226.48805,0 226.48805,0 l 0,0 0,0"
         id="path5747"
         inkscape:connector-curvature="0" />
      <path
         inkscape:connector-curvature="0"
         id="path5770"
         d="m -712.85442,2945.7518 c 0,0 113.24399,-923.3458 226.48798,0 113.24397,923.3459 226.48806,0 226.48806,0 l 0,0 0,0"
         style="fill:none;fill-rule:evenodd;stroke:#000000;stroke-width:80;stroke-linecap:round;stroke-linejoin:miter;stroke-miterlimit:4;stroke-dasharray:none;stroke-opacity:1" />
    </g>
  </g>
  <g
     inkscape:label="Basic pattern"
     inkscape:groupmode="layer"
     id="layer1"
     transform="translate(0,867.63784)"
     sodipodi:insensitive="true"
     style="display:none">
    <path
       style="color:#000000;clip-rule:nonzero;display:inline;overflow:visible;visibility:visible;opacity:1;isolation:auto;mix-blend-mode:normal;color-interpolation:sRGB;color-interpolation-filters:linearRGB;solid-color:#000000;solid-opacity:1;fill:none;fill-opacity:1;fill-rule:nonzero;stroke:#ff0000;stroke-width:1;stroke-linecap:round;stroke-linejoin:round;stroke-miterlimit:4;stroke-dasharray:none;stroke-dashoffset:0;stroke-opacity:1;color-rendering:auto;image-rendering:auto;shape-rendering:auto;text-rendering:auto;enable-background:accumulate"
       id="path4762"
       sodipodi:type="arc"
       sodipodi:cx="960"
       sodipodi:cy="92.36216"
       sodipodi:rx="879.50024"
       sodipodi:ry="879.50031"
       sodipodi:start="0"
       sodipodi:end="6.2831329"
       sodipodi:open="true"
       d="M 1839.5002,92.36216 A 879.50024,879.50031 0 0 1 960.01152,971.86246 879.50024,879.50031 0 0 1 80.499756,92.385206 879.50024,879.50031 0 0 1 959.96543,-787.13814 879.50024,879.50031 0 0 1 1839.5002,92.316068" />
    <rect
       style="opacity:1;fill:none;fill-opacity:1;stroke:#ff0000;stroke-width:1;stroke-linecap:round;stroke-linejoin:miter;stroke-miterlimit:4;stroke-dasharray:none;stroke-opacity:1"
       id="rect4764"
       width="1519.0004"
       height="1519.0004"
       x="200.49982"
       y="-667.138"
       ry="119.50016" />
    <rect
       style="opacity:1;fill:none;fill-opacity:1;stroke:#ff0000;stroke-width:1;stroke-linecap:round;stroke-linejoin:miter;stroke-miterlimit:4;stroke-dasharray:none;stroke-opacity:1"
       id="rect4766"
       width="1759"
       height="1279"
       x="80.5"
       y="-547.13782"
       ry="119.49998" />
    <rect
       style="opacity:1;fill:none;fill-opacity:1;stroke:#ff0000;stroke-width:1.00011551;stroke-linecap:round;stroke-linejoin:miter;stroke-miterlimit:4;stroke-dasharray:none;stroke-opacity:1"
       id="rect4768"
       width="1278.9999"
       height="1758.9999"
       x="320.50006"
       y="-787.13776"
       ry="119.49992" />
  </g>
  <g
     inkscape:groupmode="layer"
     id="layer2"
     inkscape:label="Main pattern"
     sodipodi:insensitive="true"
     style="display:none">
    <path
       style="color:#000000;clip-rule:nonzero;display:inline;overflow:visible;visibility:visible;opacity:1;isolation:auto;mix-blend-mode:normal;color-interpolation:sRGB;color-interpolation-filters:linearRGB;solid-color:#000000;solid-opacity:1;fill:none;fill-opacity:1;fill-rule:nonzero;stroke:#2e2e2e;stroke-width:1;stroke-linecap:round;stroke-linejoin:round;stroke-miterlimit:4;stroke-dasharray:none;stroke-dashoffset:0;stroke-opacity:1;color-rendering:auto;image-rendering:auto;shape-rendering:auto;text-rendering:auto;enable-background:accumulate"
       id="path4771"
       sodipodi:type="arc"
       sodipodi:cx="960"
       sodipodi:cy="960"
       sodipodi:rx="439.49997"
       sodipodi:ry="439.5"
       sodipodi:start="0"
       sodipodi:end="6.2831329"
       sodipodi:open="true"
       d="M 1399.5,960 A 439.49997,439.5 0 0 1 960.00576,1399.5 439.49997,439.5 0 0 1 520.50003,960.01152 439.49997,439.5 0 0 1 959.98273,520.5 439.49997,439.5 0 0 1 1399.5,959.97697" />
    <path
       style="color:#000000;clip-rule:nonzero;display:inline;overflow:visible;visibility:visible;opacity:1;isolation:auto;mix-blend-mode:normal;color-interpolation:sRGB;color-interpolation-filters:linearRGB;solid-color:#000000;solid-opacity:1;fill:none;fill-opacity:1;fill-rule:nonzero;stroke:#2e2e2e;stroke-width:0.5707171;stroke-linecap:round;stroke-linejoin:round;stroke-miterlimit:4;stroke-dasharray:none;stroke-dashoffset:0;stroke-opacity:1;color-rendering:auto;image-rendering:auto;shape-rendering:auto;text-rendering:auto;enable-background:accumulate"
       id="path4773"
       sodipodi:type="arc"
       sodipodi:cx="320"
       sodipodi:cy="320"
       sodipodi:rx="119.71463"
       sodipodi:ry="119.71464"
       sodipodi:start="0"
       sodipodi:end="6.2831329"
       sodipodi:open="true"
       d="M 439.71463,320 A 119.71463,119.71464 0 0 1 320.00157,439.71464 119.71463,119.71464 0 0 1 200.28537,320.00314 119.71463,119.71464 0 0 1 319.99529,200.28536 119.71463,119.71464 0 0 1 439.71463,319.99373" />
    <path
       style="color:#000000;clip-rule:nonzero;display:inline;overflow:visible;visibility:visible;opacity:1;isolation:auto;mix-blend-mode:normal;color-interpolation:sRGB;color-interpolation-filters:linearRGB;solid-color:#000000;solid-opacity:1;fill:none;fill-opacity:1;fill-rule:nonzero;stroke:#2e2e2e;stroke-width:1;stroke-linecap:round;stroke-linejoin:round;stroke-miterlimit:4;stroke-dasharray:none;stroke-dashoffset:0;stroke-opacity:1;color-rendering:auto;image-rendering:auto;shape-rendering:auto;text-rendering:auto;enable-background:accumulate"
       id="path4794"
       sodipodi:type="arc"
       sodipodi:cx="1600"
       sodipodi:cy="320"
       sodipodi:rx="119.49998"
       sodipodi:ry="119.5"
       sodipodi:start="0"
       sodipodi:end="6.2831329"
       sodipodi:open="true"
       d="M 1719.5,320 A 119.49998,119.5 0 0 1 1600.0016,439.5 119.49998,119.5 0 0 1 1480.5,320.00313 119.49998,119.5 0 0 1 1599.9953,200.5 119.49998,119.5 0 0 1 1719.5,319.99374" />
    <path
       style="color:#000000;clip-rule:nonzero;display:inline;overflow:visible;visibility:visible;opacity:1;isolation:auto;mix-blend-mode:normal;color-interpolation:sRGB;color-interpolation-filters:linearRGB;solid-color:#000000;solid-opacity:1;fill:none;fill-opacity:1;fill-rule:nonzero;stroke:#2e2e2e;stroke-width:1;stroke-linecap:round;stroke-linejoin:round;stroke-miterlimit:4;stroke-dasharray:none;stroke-dashoffset:0;stroke-opacity:1;color-rendering:auto;image-rendering:auto;shape-rendering:auto;text-rendering:auto;enable-background:accumulate"
       id="path4796"
       sodipodi:type="arc"
       sodipodi:cx="319.99997"
       sodipodi:cy="1600"
       sodipodi:rx="119.49998"
       sodipodi:ry="119.5"
       sodipodi:start="0"
       sodipodi:end="6.2831329"
       sodipodi:open="true"
       d="M 439.49995,1600 A 119.49998,119.5 0 0 1 320.00154,1719.5 119.49998,119.5 0 0 1 200.49999,1600.0031 119.49998,119.5 0 0 1 319.99527,1480.5 119.49998,119.5 0 0 1 439.49995,1599.9937" />
    <path
       style="color:#000000;clip-rule:nonzero;display:inline;overflow:visible;visibility:visible;opacity:1;isolation:auto;mix-blend-mode:normal;color-interpolation:sRGB;color-interpolation-filters:linearRGB;solid-color:#000000;solid-opacity:1;fill:none;fill-opacity:1;fill-rule:nonzero;stroke:#2e2e2e;stroke-width:1;stroke-linecap:round;stroke-linejoin:round;stroke-miterlimit:4;stroke-dasharray:none;stroke-dashoffset:0;stroke-opacity:1;color-rendering:auto;image-rendering:auto;shape-rendering:auto;text-rendering:auto;enable-background:accumulate"
       id="path4798"
       sodipodi:type="arc"
       sodipodi:cx="1600"
       sodipodi:cy="1600"
       sodipodi:rx="119.49998"
       sodipodi:ry="119.5"
       sodipodi:start="0"
       sodipodi:end="6.2831329"
       sodipodi:open="true"
       d="M 1719.5,1600 A 119.49998,119.5 0 0 1 1600.0016,1719.5 119.49998,119.5 0 0 1 1480.5,1600.0031 119.49998,119.5 0 0 1 1599.9953,1480.5 119.49998,119.5 0 0 1 1719.5,1599.9937" />
    <rect
       style="opacity:1;fill:none;fill-opacity:1;stroke:#2e2e2e;stroke-width:0.99996334;stroke-linecap:round;stroke-linejoin:miter;stroke-miterlimit:4;stroke-dasharray:none;stroke-opacity:1"
       id="rect4800"
       width="239.00003"
       height="1809"
       x="-119.50002"
       y="453.14502"
       ry="0"
       transform="matrix(0.70710678,-0.70710678,0.70710678,0.70710678,0,0)" />
    <rect
       style="opacity:1;fill:none;fill-opacity:1;stroke:#2e2e2e;stroke-width:1.0000571;stroke-linecap:round;stroke-linejoin:miter;stroke-miterlimit:4;stroke-dasharray:none;stroke-opacity:1"
       id="rect4802"
       width="238.99994"
       height="1808.9999"
       x="1238.145"
       y="-904.49994"
       transform="matrix(0.70710678,0.70710678,-0.70710678,0.70710678,0,0)" />
  </g>
</svg>
