<?xml version="1.0" encoding="UTF-8" standalone="no"?>
<!-- Created with Inkscape (http://www.inkscape.org/) -->

<svg
   xmlns:dc="http://purl.org/dc/elements/1.1/"
   xmlns:cc="http://creativecommons.org/ns#"
   xmlns:rdf="http://www.w3.org/1999/02/22-rdf-syntax-ns#"
   xmlns:svg="http://www.w3.org/2000/svg"
   xmlns="http://www.w3.org/2000/svg"
   xmlns:sodipodi="http://sodipodi.sourceforge.net/DTD/sodipodi-0.dtd"
   xmlns:inkscape="http://www.inkscape.org/namespaces/inkscape"
   width="1920"
   height="1920"
   viewBox="0 0 1920 1920"
   id="svg4212"
   version="1.1"
   inkscape:version="0.91 r13725"
   sodipodi:docname="iconSpeedSlow.svg"
   inkscape:export-filename="/Users/Robert/Development/iOS/iOSsmithy/iOS005 - Audio Recording/Assets/iconSpeedSlow@3x.png"
   inkscape:export-xdpi="399"
   inkscape:export-ydpi="399">
  <defs
     id="defs4214" />
  <sodipodi:namedview
     id="base"
     pagecolor="#ffffff"
     bordercolor="#666666"
     borderopacity="1.0"
     inkscape:pageopacity="0.0"
     inkscape:pageshadow="2"
     inkscape:zoom="0.27215899"
     inkscape:cx="210.3298"
     inkscape:cy="519.43575"
     inkscape:document-units="px"
     inkscape:current-layer="layer3"
     showgrid="true"
     units="px"
     inkscape:showpageshadow="false"
     inkscape:window-width="1779"
     inkscape:window-height="1156"
     inkscape:window-x="60"
     inkscape:window-y="0"
     inkscape:window-maximized="0">
    <inkscape:grid
       type="xygrid"
       id="grid4760"
       units="px"
       spacingx="40"
       spacingy="40"
       empspacing="16"
       dotted="false" />
  </sodipodi:namedview>
  <metadata
     id="metadata4217">
    <rdf:RDF>
      <cc:Work
         rdf:about="">
        <dc:format>image/svg+xml</dc:format>
        <dc:type
           rdf:resource="http://purl.org/dc/dcmitype/StillImage" />
        <dc:title />
      </cc:Work>
    </rdf:RDF>
  </metadata>
  <g
     inkscape:label="Basic pattern"
     inkscape:groupmode="layer"
     id="layer1"
     transform="translate(0,867.63784)"
     sodipodi:insensitive="true"
     style="display:none">
    <path
       style="color:#000000;clip-rule:nonzero;display:inline;overflow:visible;visibility:visible;opacity:1;isolation:auto;mix-blend-mode:normal;color-interpolation:sRGB;color-interpolation-filters:linearRGB;solid-color:#000000;solid-opacity:1;fill:none;fill-opacity:1;fill-rule:nonzero;stroke:#ff0000;stroke-width:1;stroke-linecap:round;stroke-linejoin:round;stroke-miterlimit:4;stroke-dasharray:none;stroke-dashoffset:0;stroke-opacity:1;color-rendering:auto;image-rendering:auto;shape-rendering:auto;text-rendering:auto;enable-background:accumulate"
       id="path4762"
       sodipodi:type="arc"
       sodipodi:cx="960"
       sodipodi:cy="92.36216"
       sodipodi:rx="879.50024"
       sodipodi:ry="879.50031"
       sodipodi:start="0"
       sodipodi:end="6.2831329"
       sodipodi:open="true"
       d="M 1839.5002,92.36216 A 879.50024,879.50031 0 0 1 960.01152,971.86246 879.50024,879.50031 0 0 1 80.499756,92.385206 879.50024,879.50031 0 0 1 959.96543,-787.13814 879.50024,879.50031 0 0 1 1839.5002,92.316068" />
    <rect
       style="opacity:1;fill:none;fill-opacity:1;stroke:#ff0000;stroke-width:1;stroke-linecap:round;stroke-linejoin:miter;stroke-miterlimit:4;stroke-dasharray:none;stroke-opacity:1"
       id="rect4764"
       width="1519.0004"
       height="1519.0004"
       x="200.49982"
       y="-667.138"
       ry="119.50016" />
    <rect
       style="opacity:1;fill:none;fill-opacity:1;stroke:#ff0000;stroke-width:1;stroke-linecap:round;stroke-linejoin:miter;stroke-miterlimit:4;stroke-dasharray:none;stroke-opacity:1"
       id="rect4766"
       width="1759"
       height="1279"
       x="80.5"
       y="-547.13782"
       ry="119.49998" />
    <rect
       style="opacity:1;fill:none;fill-opacity:1;stroke:#ff0000;stroke-width:1.00011551;stroke-linecap:round;stroke-linejoin:miter;stroke-miterlimit:4;stroke-dasharray:none;stroke-opacity:1"
       id="rect4768"
       width="1278.9999"
       height="1758.9999"
       x="320.50006"
       y="-787.13776"
       ry="119.49992" />
  </g>
  <g
     inkscape:groupmode="layer"
     id="layer2"
     inkscape:label="Main pattern"
     sodipodi:insensitive="true"
     style="display:none">
    <path
       style="color:#000000;clip-rule:nonzero;display:inline;overflow:visible;visibility:visible;opacity:1;isolation:auto;mix-blend-mode:normal;color-interpolation:sRGB;color-interpolation-filters:linearRGB;solid-color:#000000;solid-opacity:1;fill:none;fill-opacity:1;fill-rule:nonzero;stroke:#2e2e2e;stroke-width:1;stroke-linecap:round;stroke-linejoin:round;stroke-miterlimit:4;stroke-dasharray:none;stroke-dashoffset:0;stroke-opacity:1;color-rendering:auto;image-rendering:auto;shape-rendering:auto;text-rendering:auto;enable-background:accumulate"
       id="path4771"
       sodipodi:type="arc"
       sodipodi:cx="960"
       sodipodi:cy="960"
       sodipodi:rx="439.49997"
       sodipodi:ry="439.5"
       sodipodi:start="0"
       sodipodi:end="6.2831329"
       sodipodi:open="true"
       d="M 1399.5,960 A 439.49997,439.5 0 0 1 960.00576,1399.5 439.49997,439.5 0 0 1 520.50003,960.01152 439.49997,439.5 0 0 1 959.98273,520.5 439.49997,439.5 0 0 1 1399.5,959.97697" />
    <path
       style="color:#000000;clip-rule:nonzero;display:inline;overflow:visible;visibility:visible;opacity:1;isolation:auto;mix-blend-mode:normal;color-interpolation:sRGB;color-interpolation-filters:linearRGB;solid-color:#000000;solid-opacity:1;fill:none;fill-opacity:1;fill-rule:nonzero;stroke:#2e2e2e;stroke-width:0.5707171;stroke-linecap:round;stroke-linejoin:round;stroke-miterlimit:4;stroke-dasharray:none;stroke-dashoffset:0;stroke-opacity:1;color-rendering:auto;image-rendering:auto;shape-rendering:auto;text-rendering:auto;enable-background:accumulate"
       id="path4773"
       sodipodi:type="arc"
       sodipodi:cx="320"
       sodipodi:cy="320"
       sodipodi:rx="119.71463"
       sodipodi:ry="119.71464"
       sodipodi:start="0"
       sodipodi:end="6.2831329"
       sodipodi:open="true"
       d="M 439.71463,320 A 119.71463,119.71464 0 0 1 320.00157,439.71464 119.71463,119.71464 0 0 1 200.28537,320.00314 119.71463,119.71464 0 0 1 319.99529,200.28536 119.71463,119.71464 0 0 1 439.71463,319.99373" />
    <path
       style="color:#000000;clip-rule:nonzero;display:inline;overflow:visible;visibility:visible;opacity:1;isolation:auto;mix-blend-mode:normal;color-interpolation:sRGB;color-interpolation-filters:linearRGB;solid-color:#000000;solid-opacity:1;fill:none;fill-opacity:1;fill-rule:nonzero;stroke:#2e2e2e;stroke-width:1;stroke-linecap:round;stroke-linejoin:round;stroke-miterlimit:4;stroke-dasharray:none;stroke-dashoffset:0;stroke-opacity:1;color-rendering:auto;image-rendering:auto;shape-rendering:auto;text-rendering:auto;enable-background:accumulate"
       id="path4794"
       sodipodi:type="arc"
       sodipodi:cx="1600"
       sodipodi:cy="320"
       sodipodi:rx="119.49998"
       sodipodi:ry="119.5"
       sodipodi:start="0"
       sodipodi:end="6.2831329"
       sodipodi:open="true"
       d="M 1719.5,320 A 119.49998,119.5 0 0 1 1600.0016,439.5 119.49998,119.5 0 0 1 1480.5,320.00313 119.49998,119.5 0 0 1 1599.9953,200.5 119.49998,119.5 0 0 1 1719.5,319.99374" />
    <path
       style="color:#000000;clip-rule:nonzero;display:inline;overflow:visible;visibility:visible;opacity:1;isolation:auto;mix-blend-mode:normal;color-interpolation:sRGB;color-interpolation-filters:linearRGB;solid-color:#000000;solid-opacity:1;fill:none;fill-opacity:1;fill-rule:nonzero;stroke:#2e2e2e;stroke-width:1;stroke-linecap:round;stroke-linejoin:round;stroke-miterlimit:4;stroke-dasharray:none;stroke-dashoffset:0;stroke-opacity:1;color-rendering:auto;image-rendering:auto;shape-rendering:auto;text-rendering:auto;enable-background:accumulate"
       id="path4796"
       sodipodi:type="arc"
       sodipodi:cx="319.99997"
       sodipodi:cy="1600"
       sodipodi:rx="119.49998"
       sodipodi:ry="119.5"
       sodipodi:start="0"
       sodipodi:end="6.2831329"
       sodipodi:open="true"
       d="M 439.49995,1600 A 119.49998,119.5 0 0 1 320.00154,1719.5 119.49998,119.5 0 0 1 200.49999,1600.0031 119.49998,119.5 0 0 1 319.99527,1480.5 119.49998,119.5 0 0 1 439.49995,1599.9937" />
    <path
       style="color:#000000;clip-rule:nonzero;display:inline;overflow:visible;visibility:visible;opacity:1;isolation:auto;mix-blend-mode:normal;color-interpolation:sRGB;color-interpolation-filters:linearRGB;solid-color:#000000;solid-opacity:1;fill:none;fill-opacity:1;fill-rule:nonzero;stroke:#2e2e2e;stroke-width:1;stroke-linecap:round;stroke-linejoin:round;stroke-miterlimit:4;stroke-dasharray:none;stroke-dashoffset:0;stroke-opacity:1;color-rendering:auto;image-rendering:auto;shape-rendering:auto;text-rendering:auto;enable-background:accumulate"
       id="path4798"
       sodipodi:type="arc"
       sodipodi:cx="1600"
       sodipodi:cy="1600"
       sodipodi:rx="119.49998"
       sodipodi:ry="119.5"
       sodipodi:start="0"
       sodipodi:end="6.2831329"
       sodipodi:open="true"
       d="M 1719.5,1600 A 119.49998,119.5 0 0 1 1600.0016,1719.5 119.49998,119.5 0 0 1 1480.5,1600.0031 119.49998,119.5 0 0 1 1599.9953,1480.5 119.49998,119.5 0 0 1 1719.5,1599.9937" />
    <rect
       style="opacity:1;fill:none;fill-opacity:1;stroke:#2e2e2e;stroke-width:0.99996334;stroke-linecap:round;stroke-linejoin:miter;stroke-miterlimit:4;stroke-dasharray:none;stroke-opacity:1"
       id="rect4800"
       width="239.00003"
       height="1809"
       x="-119.50002"
       y="453.14502"
       ry="0"
       transform="matrix(0.70710678,-0.70710678,0.70710678,0.70710678,0,0)" />
    <rect
       style="opacity:1;fill:none;fill-opacity:1;stroke:#2e2e2e;stroke-width:1.0000571;stroke-linecap:round;stroke-linejoin:miter;stroke-miterlimit:4;stroke-dasharray:none;stroke-opacity:1"
       id="rect4802"
       width="238.99994"
       height="1808.9999"
       x="1238.145"
       y="-904.49994"
       transform="matrix(0.70710678,0.70710678,-0.70710678,0.70710678,0,0)" />
  </g>
  <g
     inkscape:groupmode="layer"
     id="layer3"
     inkscape:label="Icon">
    <path
       style="fill:#000000"
       d="m 511.86897,1642.7704 c -19.2991,-23.2539 -8.0222,-56.834 69.5566,-207.1235 50.9244,-98.6536 98.7726,-178.3307 106.3293,-177.0602 7.5567,1.2705 36.3724,21.3544 64.0349,44.6309 l 50.2956,42.321 -109.2598,162.4926 c -110.2496,163.9646 -138.9599,185.3422 -180.9566,134.7392 z m 547.13643,13.9779 c -11.2689,-7.2734 -38.5522,-80.3121 -60.62943,-162.3082 -40.0914,-148.9013 -40.3031,-149.2166 -172.9448,-257.602 -79.7742,-65.1859 -137.4604,-127.0698 -144.4647,-154.9773 -6.4132,-25.5524 5.4994,-128.33155 26.4724,-228.39795 41.7577,-199.2332 73.15,-244.939 168.2329,-244.939 137.58003,0 168.32983,75.4377 121.8417,298.9106 l -33.3027,160.08945 60.52013,117 c 75.245,145.4667 134.4607,417.1923 99.9726,458.7479 -25.2857,30.4675 -35.976,32.6603 -65.6981,13.4765 z m 389.4889,-389.7244 c 0,-223.575 -6.6881,-406.50005 -14.8623,-406.50005 -8.1743,0 -33.8863,20.25 -57.1377,45 -47.3478,50.3995 -80.5839,54.6591 -184.2167,23.61 -69.1028,-20.7037 -71.0531,-23.4469 -60.7864,-85.5 5.8338,-35.2605 10.696,-74.3366 10.805,-86.8358 0.126,-14.5318 26.4059,-6.1815 72.8843,23.1589 l 72.6861,45.8848 79.7236,-68.1589 c 49.5996,-42.4048 79.9466,-83.4621 80.3138,-108.659 0.346,-23.7376 11.7652,-40.5 27.5903,-40.5 14.85,0 27,12.2599 27,27.2442 0,14.9844 9.7363,42.8345 21.6361,61.8892 16.8561,26.9909 16.8376,43.8379 -0.085,76.2558 -14.7463,28.2505 -23.1381,176.9485 -26.1361,463.12125 -3.3311,318.0078 -9.9403,423.3495 -26.9154,429 -17.5569,5.8442 -22.5,-81.8159 -22.5,-399.0104 z m -1017.07353,-231 c -30.5224,-26.256 -47.4584,-59.49205 -48.1541,-94.50005 -1.2025,-60.5103 48.1083,-267.3924 77.8247,-326.5118 37.7521,-75.1058 177.4029,-99.1789 177.4029,-30.5808 0,15.1148 -21.6298,132.0189 -48.0661,259.787 -52.7834,255.10435 -66.3704,271.49385 -159.0074,191.80565 z m 460.3799,-546.92755 c -50.4949,-64.1939 -47.7803,-141.735 6.8754,-196.3907 89.2835,-89.2834 243.81823,-26.0176 243.81823,99.8182 0,129.022 -172.80603,195.5906 -250.69363,96.5725 z"
       id="path4478"
       inkscape:connector-curvature="0" />
  </g>
</svg>
