<?xml version="1.0" encoding="UTF-8" standalone="no"?>
<!-- Created with Inkscape (http://www.inkscape.org/) -->

<svg
   xmlns:dc="http://purl.org/dc/elements/1.1/"
   xmlns:cc="http://creativecommons.org/ns#"
   xmlns:rdf="http://www.w3.org/1999/02/22-rdf-syntax-ns#"
   xmlns:svg="http://www.w3.org/2000/svg"
   xmlns="http://www.w3.org/2000/svg"
   xmlns:sodipodi="http://sodipodi.sourceforge.net/DTD/sodipodi-0.dtd"
   xmlns:inkscape="http://www.inkscape.org/namespaces/inkscape"
   width="1920"
   height="1920"
   viewBox="0 0 1920 1920"
   id="svg4212"
   version="1.1"
   inkscape:version="0.91 r13725"
   sodipodi:docname="iconSpeedNormal.svg"
   inkscape:export-filename="/Users/Robert/Development/iOS/iOSsmithy/iOS005 - Audio Recording/Assets/iconSpeedNormal@3x.png"
   inkscape:export-xdpi="399"
   inkscape:export-ydpi="399">
  <defs
     id="defs4214" />
  <sodipodi:namedview
     id="base"
     pagecolor="#ffffff"
     bordercolor="#666666"
     borderopacity="1.0"
     inkscape:pageopacity="0.0"
     inkscape:pageshadow="2"
     inkscape:zoom="0.27215899"
     inkscape:cx="210.3298"
     inkscape:cy="519.43575"
     inkscape:document-units="px"
     inkscape:current-layer="layer3"
     showgrid="true"
     units="px"
     inkscape:showpageshadow="false"
     inkscape:window-width="1779"
     inkscape:window-height="1156"
     inkscape:window-x="60"
     inkscape:window-y="0"
     inkscape:window-maximized="0">
    <inkscape:grid
       type="xygrid"
       id="grid4760"
       units="px"
       spacingx="40"
       spacingy="40"
       empspacing="16"
       dotted="false" />
  </sodipodi:namedview>
  <metadata
     id="metadata4217">
    <rdf:RDF>
      <cc:Work
         rdf:about="">
        <dc:format>image/svg+xml</dc:format>
        <dc:type
           rdf:resource="http://purl.org/dc/dcmitype/StillImage" />
        <dc:title />
      </cc:Work>
    </rdf:RDF>
  </metadata>
  <g
     inkscape:label="Basic pattern"
     inkscape:groupmode="layer"
     id="layer1"
     transform="translate(0,867.63784)"
     sodipodi:insensitive="true"
     style="display:none">
    <path
       style="color:#000000;clip-rule:nonzero;display:inline;overflow:visible;visibility:visible;opacity:1;isolation:auto;mix-blend-mode:normal;color-interpolation:sRGB;color-interpolation-filters:linearRGB;solid-color:#000000;solid-opacity:1;fill:none;fill-opacity:1;fill-rule:nonzero;stroke:#ff0000;stroke-width:1;stroke-linecap:round;stroke-linejoin:round;stroke-miterlimit:4;stroke-dasharray:none;stroke-dashoffset:0;stroke-opacity:1;color-rendering:auto;image-rendering:auto;shape-rendering:auto;text-rendering:auto;enable-background:accumulate"
       id="path4762"
       sodipodi:type="arc"
       sodipodi:cx="960"
       sodipodi:cy="92.36216"
       sodipodi:rx="879.50024"
       sodipodi:ry="879.50031"
       sodipodi:start="0"
       sodipodi:end="6.2831329"
       sodipodi:open="true"
       d="M 1839.5002,92.36216 A 879.50024,879.50031 0 0 1 960.01152,971.86246 879.50024,879.50031 0 0 1 80.499756,92.385206 879.50024,879.50031 0 0 1 959.96543,-787.13814 879.50024,879.50031 0 0 1 1839.5002,92.316068" />
    <rect
       style="opacity:1;fill:none;fill-opacity:1;stroke:#ff0000;stroke-width:1;stroke-linecap:round;stroke-linejoin:miter;stroke-miterlimit:4;stroke-dasharray:none;stroke-opacity:1"
       id="rect4764"
       width="1519.0004"
       height="1519.0004"
       x="200.49982"
       y="-667.138"
       ry="119.50016" />
    <rect
       style="opacity:1;fill:none;fill-opacity:1;stroke:#ff0000;stroke-width:1;stroke-linecap:round;stroke-linejoin:miter;stroke-miterlimit:4;stroke-dasharray:none;stroke-opacity:1"
       id="rect4766"
       width="1759"
       height="1279"
       x="80.5"
       y="-547.13782"
       ry="119.49998" />
    <rect
       style="opacity:1;fill:none;fill-opacity:1;stroke:#ff0000;stroke-width:1.00011551;stroke-linecap:round;stroke-linejoin:miter;stroke-miterlimit:4;stroke-dasharray:none;stroke-opacity:1"
       id="rect4768"
       width="1278.9999"
       height="1758.9999"
       x="320.50006"
       y="-787.13776"
       ry="119.49992" />
  </g>
  <g
     inkscape:groupmode="layer"
     id="layer2"
     inkscape:label="Main pattern"
     sodipodi:insensitive="true"
     style="display:none">
    <path
       style="color:#000000;clip-rule:nonzero;display:inline;overflow:visible;visibility:visible;opacity:1;isolation:auto;mix-blend-mode:normal;color-interpolation:sRGB;color-interpolation-filters:linearRGB;solid-color:#000000;solid-opacity:1;fill:none;fill-opacity:1;fill-rule:nonzero;stroke:#2e2e2e;stroke-width:1;stroke-linecap:round;stroke-linejoin:round;stroke-miterlimit:4;stroke-dasharray:none;stroke-dashoffset:0;stroke-opacity:1;color-rendering:auto;image-rendering:auto;shape-rendering:auto;text-rendering:auto;enable-background:accumulate"
       id="path4771"
       sodipodi:type="arc"
       sodipodi:cx="960"
       sodipodi:cy="960"
       sodipodi:rx="439.49997"
       sodipodi:ry="439.5"
       sodipodi:start="0"
       sodipodi:end="6.2831329"
       sodipodi:open="true"
       d="M 1399.5,960 A 439.49997,439.5 0 0 1 960.00576,1399.5 439.49997,439.5 0 0 1 520.50003,960.01152 439.49997,439.5 0 0 1 959.98273,520.5 439.49997,439.5 0 0 1 1399.5,959.97697" />
    <path
       style="color:#000000;clip-rule:nonzero;display:inline;overflow:visible;visibility:visible;opacity:1;isolation:auto;mix-blend-mode:normal;color-interpolation:sRGB;color-interpolation-filters:linearRGB;solid-color:#000000;solid-opacity:1;fill:none;fill-opacity:1;fill-rule:nonzero;stroke:#2e2e2e;stroke-width:0.5707171;stroke-linecap:round;stroke-linejoin:round;stroke-miterlimit:4;stroke-dasharray:none;stroke-dashoffset:0;stroke-opacity:1;color-rendering:auto;image-rendering:auto;shape-rendering:auto;text-rendering:auto;enable-background:accumulate"
       id="path4773"
       sodipodi:type="arc"
       sodipodi:cx="320"
       sodipodi:cy="320"
       sodipodi:rx="119.71463"
       sodipodi:ry="119.71464"
       sodipodi:start="0"
       sodipodi:end="6.2831329"
       sodipodi:open="true"
       d="M 439.71463,320 A 119.71463,119.71464 0 0 1 320.00157,439.71464 119.71463,119.71464 0 0 1 200.28537,320.00314 119.71463,119.71464 0 0 1 319.99529,200.28536 119.71463,119.71464 0 0 1 439.71463,319.99373" />
    <path
       style="color:#000000;clip-rule:nonzero;display:inline;overflow:visible;visibility:visible;opacity:1;isolation:auto;mix-blend-mode:normal;color-interpolation:sRGB;color-interpolation-filters:linearRGB;solid-color:#000000;solid-opacity:1;fill:none;fill-opacity:1;fill-rule:nonzero;stroke:#2e2e2e;stroke-width:1;stroke-linecap:round;stroke-linejoin:round;stroke-miterlimit:4;stroke-dasharray:none;stroke-dashoffset:0;stroke-opacity:1;color-rendering:auto;image-rendering:auto;shape-rendering:auto;text-rendering:auto;enable-background:accumulate"
       id="path4794"
       sodipodi:type="arc"
       sodipodi:cx="1600"
       sodipodi:cy="320"
       sodipodi:rx="119.49998"
       sodipodi:ry="119.5"
       sodipodi:start="0"
       sodipodi:end="6.2831329"
       sodipodi:open="true"
       d="M 1719.5,320 A 119.49998,119.5 0 0 1 1600.0016,439.5 119.49998,119.5 0 0 1 1480.5,320.00313 119.49998,119.5 0 0 1 1599.9953,200.5 119.49998,119.5 0 0 1 1719.5,319.99374" />
    <path
       style="color:#000000;clip-rule:nonzero;display:inline;overflow:visible;visibility:visible;opacity:1;isolation:auto;mix-blend-mode:normal;color-interpolation:sRGB;color-interpolation-filters:linearRGB;solid-color:#000000;solid-opacity:1;fill:none;fill-opacity:1;fill-rule:nonzero;stroke:#2e2e2e;stroke-width:1;stroke-linecap:round;stroke-linejoin:round;stroke-miterlimit:4;stroke-dasharray:none;stroke-dashoffset:0;stroke-opacity:1;color-rendering:auto;image-rendering:auto;shape-rendering:auto;text-rendering:auto;enable-background:accumulate"
       id="path4796"
       sodipodi:type="arc"
       sodipodi:cx="319.99997"
       sodipodi:cy="1600"
       sodipodi:rx="119.49998"
       sodipodi:ry="119.5"
       sodipodi:start="0"
       sodipodi:end="6.2831329"
       sodipodi:open="true"
       d="M 439.49995,1600 A 119.49998,119.5 0 0 1 320.00154,1719.5 119.49998,119.5 0 0 1 200.49999,1600.0031 119.49998,119.5 0 0 1 319.99527,1480.5 119.49998,119.5 0 0 1 439.49995,1599.9937" />
    <path
       style="color:#000000;clip-rule:nonzero;display:inline;overflow:visible;visibility:visible;opacity:1;isolation:auto;mix-blend-mode:normal;color-interpolation:sRGB;color-interpolation-filters:linearRGB;solid-color:#000000;solid-opacity:1;fill:none;fill-opacity:1;fill-rule:nonzero;stroke:#2e2e2e;stroke-width:1;stroke-linecap:round;stroke-linejoin:round;stroke-miterlimit:4;stroke-dasharray:none;stroke-dashoffset:0;stroke-opacity:1;color-rendering:auto;image-rendering:auto;shape-rendering:auto;text-rendering:auto;enable-background:accumulate"
       id="path4798"
       sodipodi:type="arc"
       sodipodi:cx="1600"
       sodipodi:cy="1600"
       sodipodi:rx="119.49998"
       sodipodi:ry="119.5"
       sodipodi:start="0"
       sodipodi:end="6.2831329"
       sodipodi:open="true"
       d="M 1719.5,1600 A 119.49998,119.5 0 0 1 1600.0016,1719.5 119.49998,119.5 0 0 1 1480.5,1600.0031 119.49998,119.5 0 0 1 1599.9953,1480.5 119.49998,119.5 0 0 1 1719.5,1599.9937" />
    <rect
       style="opacity:1;fill:none;fill-opacity:1;stroke:#2e2e2e;stroke-width:0.99996334;stroke-linecap:round;stroke-linejoin:miter;stroke-miterlimit:4;stroke-dasharray:none;stroke-opacity:1"
       id="rect4800"
       width="239.00003"
       height="1809"
       x="-119.50002"
       y="453.14502"
       ry="0"
       transform="matrix(0.70710678,-0.70710678,0.70710678,0.70710678,0,0)" />
    <rect
       style="opacity:1;fill:none;fill-opacity:1;stroke:#2e2e2e;stroke-width:1.0000571;stroke-linecap:round;stroke-linejoin:miter;stroke-miterlimit:4;stroke-dasharray:none;stroke-opacity:1"
       id="rect4802"
       width="238.99994"
       height="1808.9999"
       x="1238.145"
       y="-904.49994"
       transform="matrix(0.70710678,0.70710678,-0.70710678,0.70710678,0,0)" />
  </g>
  <g
     inkscape:groupmode="layer"
     id="layer3"
     inkscape:label="Icon">
    <path
       style="fill:#000000"
       d="m 558.29442,1640.8802 c -13.05848,-24.9589 4.89445,-75.0311 76.70257,-213.93 l 93.75149,-181.3441 58.86578,49.1434 58.86577,49.1433 -105.28284,159.2008 c -107.1409,162.0103 -152.39313,196.1003 -182.90277,137.7866 z m 540.70128,7.9141 c -10.0796,-12.375 -35.9474,-87.3 -57.4838,-166.5 -38.8634,-142.9189 -40.1092,-144.7416 -165.95042,-242.7805 -148.11089,-115.3885 -167.47736,-152.9553 -141.44007,-274.36287 26.19511,-122.1436 24.37671,-137.94653 -14.6974,-127.7284 -19.36235,5.0634 -55.45411,55.6077 -85.5553,119.8149 -36.78991,78.47457 -62.03498,111.05687 -86.04788,111.05687 -70.51606,0 -72.26586,-49.431 -6.76804,-191.19247 L 603.5477,741.8398 743.09928,675.567 c 164.87743,-78.2999 228.56654,-83.1576 289.63332,-22.0909 52.5332,52.5333 52.9198,60.13 13.5199,265.66203 l -30.662,159.94937 57.3076,104.2427 c 55.4086,100.7882 112.0162,310.6178 112.0162,415.2151 0,29.8069 -11.7981,55.4247 -28.4722,61.8232 -37.2443,14.292 -36.2079,14.5008 -57.4464,-11.5742 z m 142.2825,-626.1856 c -100.9849,-46.71807 -113.3392,-57.87307 -103.7458,-93.67397 5.9897,-22.3522 11.0009,-56.0708 11.1361,-74.9302 0.2238,-31.22163 3.0644,-31.80783 31.7458,-6.552 17.325,15.2558 76.05,49.9735 130.5,77.1504 113.9301,56.8645 130.1708,75.2649 106.1107,120.22147 -22.8706,42.7343 -40.0454,40.5633 -175.7468,-22.2157 z M 938.95561,490.9719 c -38.59353,-38.5935 -44.55493,-57.3641 -35.72928,-112.5 19.34244,-120.8366 138.18547,-167.4439 234.26047,-91.8712 36.1853,28.4634 47.4275,53.3199 47.4275,104.8624 0,134.9518 -149.8785,195.589 -245.95869,99.5088 z"
       id="path4476"
       inkscape:connector-curvature="0" />
  </g>
</svg>
